<?xml version="1.0"?>
<!DOCTYPE svg PUBLIC "-//W3C//DTD SVG 1.1//EN" "http://www.w3.org/Graphics/SVG/1.1/DTD/svg11.dtd">
<svg width="75.48mm" height="51.480000000000004mm" viewBox="0 0 75.48 51.480000000000004" xmlns="http://www.w3.org/2000/svg" version="1.1">
<g id="Body004" transform="translate(37.740000,50.740000) scale(1,-1)">
<path id="Body004_f0000"  d="M -6.999999999999975 50.0 L -31.999999999999975 50.0 L -31.999999999999975 50.0 L -6.999999999999979 50.0 L -6.999999999999975 50.0 Z " stroke="#191919" stroke-width="0.35 px" style="stroke-width:0.35;stroke-miterlimit:4;stroke-dasharray:none;stroke-linecap:square;fill:#00aa00;fill-opacity:1.0;fill-rule: evenodd"/>
<circle cx="30.000000000000025" cy="6.5" r="3.3" stroke="#191919" stroke-width="0.35 px" style="stroke-width:0.35;stroke-miterlimit:4;stroke-dasharray:none;stroke-linecap:square;fill:#00aa00"/>
<path id="Body004_f0002"  d="M -6.999999999999975 50.0 A 2 2 0 0 0 -5 48L -4.999999999999975 48.0 A 2 2 0 0 1 -7 50L -6.999999999999975 50.0 Z " stroke="#191919" stroke-width="0.35 px" style="stroke-width:0.35;stroke-miterlimit:4;stroke-dasharray:none;stroke-linecap:square;fill:#00aa00;fill-opacity:1.0;fill-rule: evenodd"/>
<path id="Body004_f0003"  d="M -31.999999999999975 50.0 A 5 5 0 0 1 -37 45L -36.99999999999998 45.0 A 5 5 0 0 0 -32 50L -31.999999999999975 50.0 Z " stroke="#191919" stroke-width="0.35 px" style="stroke-width:0.35;stroke-miterlimit:4;stroke-dasharray:none;stroke-linecap:square;fill:#00aa00;fill-opacity:1.0;fill-rule: evenodd"/>
<circle cx="30.000000000000025" cy="6.5" r="3.3" stroke="#191919" stroke-width="0.35 px" style="stroke-width:0.35;stroke-miterlimit:4;stroke-dasharray:none;stroke-linecap:square;fill:#00aa00"/>
<path id="Body004_f0005"  d="M -4.999999999999975 47.0 L -4.999999999999975 48.0 L -4.999999999999975 48.0 L -4.999999999999975 47.0 L -4.999999999999975 47.0 Z " stroke="#191919" stroke-width="0.35 px" style="stroke-width:0.35;stroke-miterlimit:4;stroke-dasharray:none;stroke-linecap:square;fill:#00aa00;fill-opacity:1.0;fill-rule: evenodd"/>
<path id="Body004_f0006"  d="M -36.99999999999998 5.0 L -36.99999999999998 45.0 L -36.99999999999998 45.0 L -36.99999999999998 4.999999999999999 L -36.99999999999998 4.999999999999999 Z " stroke="#191919" stroke-width="0.35 px" style="stroke-width:0.35;stroke-miterlimit:4;stroke-dasharray:none;stroke-linecap:square;fill:#00aa00;fill-opacity:1.0;fill-rule: evenodd"/>
<path id="Body004_f0007"  d="M -4.999999999999975 47.0 A 2 2 0 0 1 -3 45L -2.999999999999976 45.0 A 2 2 0 0 0 -5 47L -4.999999999999975 47.0 Z " stroke="#191919" stroke-width="0.35 px" style="stroke-width:0.35;stroke-miterlimit:4;stroke-dasharray:none;stroke-linecap:square;fill:#00aa00;fill-opacity:1.0;fill-rule: evenodd"/>
<path id="Body004_f0008"  d="M -36.99999999999998 4.999999999999999 A 5 5 0 0 1 -32 -8.88178e-16L -31.999999999999975 -8.881784197001252e-16 A 5 5 0 0 0 -37 5L -36.99999999999998 4.999999999999999 Z " stroke="#191919" stroke-width="0.35 px" style="stroke-width:0.35;stroke-miterlimit:4;stroke-dasharray:none;stroke-linecap:square;fill:#00aa00;fill-opacity:1.0;fill-rule: evenodd"/>
<path id="Body004_f0009"  d="M 3.000000000000025 45.0 L -2.9999999999999756 45.0 L -2.999999999999976 45.0 L 3.000000000000025 45.0 L 3.000000000000025 45.0 Z " stroke="#191919" stroke-width="0.35 px" style="stroke-width:0.35;stroke-miterlimit:4;stroke-dasharray:none;stroke-linecap:square;fill:#00aa00;fill-opacity:1.0;fill-rule: evenodd"/>
<path id="Body004_f0010"  d="M -6.999999999999975 -4.440892098500626e-16 L -31.999999999999975 -8.881784197001252e-16 L -31.999999999999975 -8.881784197001252e-16 L -6.999999999999979 0.0 L -6.999999999999975 -4.440892098500626e-16 Z " stroke="#191919" stroke-width="0.35 px" style="stroke-width:0.35;stroke-miterlimit:4;stroke-dasharray:none;stroke-linecap:square;fill:#00aa00;fill-opacity:1.0;fill-rule: evenodd"/>
<path id="Body004_f0011"  d="M 3.000000000000025 45.0 A 2 2 0 0 1 5 47L 5.000000000000025 47.0 A 2 2 0 0 0 3 45L 3.000000000000025 45.0 Z " stroke="#191919" stroke-width="0.35 px" style="stroke-width:0.35;stroke-miterlimit:4;stroke-dasharray:none;stroke-linecap:square;fill:#00aa00;fill-opacity:1.0;fill-rule: evenodd"/>
<path id="Body004_f0012"  d="M -6.999999999999975 -4.440892098500626e-16 A 2 2 0 0 1 -5 2L -4.999999999999975 1.9999999999999993 A 2 2 0 0 0 -7 -4.44089e-16L -6.999999999999975 -4.440892098500626e-16 Z " stroke="#191919" stroke-width="0.35 px" style="stroke-width:0.35;stroke-miterlimit:4;stroke-dasharray:none;stroke-linecap:square;fill:#00aa00;fill-opacity:1.0;fill-rule: evenodd"/>
<path id="Body004_f0013"  d="M 5.000000000000025 48.0 L 5.000000000000025 47.0 L 5.000000000000025 47.0 L 5.000000000000025 48.0 L 5.000000000000025 48.0 Z " stroke="#191919" stroke-width="0.35 px" style="stroke-width:0.35;stroke-miterlimit:4;stroke-dasharray:none;stroke-linecap:square;fill:#00aa00;fill-opacity:1.0;fill-rule: evenodd"/>
<path id="Body004_f0014"  d="M -4.999999999999975 3.0000000000000004 L -4.999999999999975 1.9999999999999993 L -4.999999999999975 1.9999999999999993 L -4.999999999999975 3.0000000000000004 L -4.999999999999975 3.0000000000000004 Z " stroke="#191919" stroke-width="0.35 px" style="stroke-width:0.35;stroke-miterlimit:4;stroke-dasharray:none;stroke-linecap:square;fill:#00aa00;fill-opacity:1.0;fill-rule: evenodd"/>
<path id="Body004_f0015"  d="M 5.000000000000025 48.0 A 2 2 0 0 0 7 50L 7.000000000000025 50.0 A 2 2 0 0 1 5 48L 5.000000000000025 48.0 Z " stroke="#191919" stroke-width="0.35 px" style="stroke-width:0.35;stroke-miterlimit:4;stroke-dasharray:none;stroke-linecap:square;fill:#00aa00;fill-opacity:1.0;fill-rule: evenodd"/>
<path id="Body004_f0016"  d="M -4.999999999999975 3.0000000000000004 A 2 2 0 0 0 -3 5L -2.999999999999976 5.0 A 2 2 0 0 1 -5 3L -4.999999999999975 3.0000000000000004 Z " stroke="#191919" stroke-width="0.35 px" style="stroke-width:0.35;stroke-miterlimit:4;stroke-dasharray:none;stroke-linecap:square;fill:#00aa00;fill-opacity:1.0;fill-rule: evenodd"/>
<path id="Body004_f0017"  d="M 32.00000000000003 50.0 L 7.000000000000025 50.0 L 7.000000000000025 50.0 L 32.00000000000002 50.0 L 32.00000000000002 50.0 Z " stroke="#191919" stroke-width="0.35 px" style="stroke-width:0.35;stroke-miterlimit:4;stroke-dasharray:none;stroke-linecap:square;fill:#00aa00;fill-opacity:1.0;fill-rule: evenodd"/>
<path id="Body004_f0018"  d="M 3.000000000000025 5.0 L -2.9999999999999756 5.0 L -2.999999999999976 5.0 L 3.000000000000025 5.0 L 3.000000000000025 5.0 Z " stroke="#191919" stroke-width="0.35 px" style="stroke-width:0.35;stroke-miterlimit:4;stroke-dasharray:none;stroke-linecap:square;fill:#00aa00;fill-opacity:1.0;fill-rule: evenodd"/>
<path id="Body004_f0019"  d="M 37.00000000000002 45.0 A 5 5 0 0 1 32 50L 32.00000000000002 50.0 A 5 5 0 0 0 37 45L 37.00000000000002 45.0 Z " stroke="#191919" stroke-width="0.35 px" style="stroke-width:0.35;stroke-miterlimit:4;stroke-dasharray:none;stroke-linecap:square;fill:#00aa00;fill-opacity:1.0;fill-rule: evenodd"/>
<path id="Body004_f0020"  d="M 3.000000000000025 5.0 A 2 2 0 0 0 5 3L 5.000000000000025 3.0000000000000004 A 2 2 0 0 1 3 5L 3.000000000000025 5.0 Z " stroke="#191919" stroke-width="0.35 px" style="stroke-width:0.35;stroke-miterlimit:4;stroke-dasharray:none;stroke-linecap:square;fill:#00aa00;fill-opacity:1.0;fill-rule: evenodd"/>
<path id="Body004_f0021"  d="M 37.00000000000002 45.0 L 37.00000000000002 4.999999999999999 L 37.00000000000002 4.999999999999999 L 37.00000000000002 45.0 L 37.00000000000002 45.0 Z " stroke="#191919" stroke-width="0.35 px" style="stroke-width:0.35;stroke-miterlimit:4;stroke-dasharray:none;stroke-linecap:square;fill:#00aa00;fill-opacity:1.0;fill-rule: evenodd"/>
<path id="Body004_f0022"  d="M 5.000000000000025 1.9999999999999996 L 5.000000000000025 3.0000000000000004 L 5.000000000000025 3.0000000000000004 L 5.000000000000025 1.9999999999999996 L 5.000000000000025 1.9999999999999996 Z " stroke="#191919" stroke-width="0.35 px" style="stroke-width:0.35;stroke-miterlimit:4;stroke-dasharray:none;stroke-linecap:square;fill:#00aa00;fill-opacity:1.0;fill-rule: evenodd"/>
<path id="Body004_f0023"  d="M 32.00000000000002 -8.881784197001252e-16 A 5 5 0 0 1 37 5L 37.00000000000002 4.999999999999999 A 5 5 0 0 0 32 -8.88178e-16L 32.00000000000002 -8.881784197001252e-16 Z " stroke="#191919" stroke-width="0.35 px" style="stroke-width:0.35;stroke-miterlimit:4;stroke-dasharray:none;stroke-linecap:square;fill:#00aa00;fill-opacity:1.0;fill-rule: evenodd"/>
<path id="Body004_f0024"  d="M 5.000000000000025 1.9999999999999996 A 2 2 0 0 1 7 -4.44089e-16L 7.000000000000025 -4.440892098500626e-16 A 2 2 0 0 0 5 2L 5.000000000000025 1.9999999999999996 Z " stroke="#191919" stroke-width="0.35 px" style="stroke-width:0.35;stroke-miterlimit:4;stroke-dasharray:none;stroke-linecap:square;fill:#00aa00;fill-opacity:1.0;fill-rule: evenodd"/>
<path id="Body004_f0025"  d="M 32.00000000000003 0.0 L 7.000000000000025 0.0 L 7.000000000000025 -4.440892098500626e-16 L 32.00000000000002 -8.881784197001252e-16 L 32.00000000000002 -8.881784197001252e-16 Z " stroke="#191919" stroke-width="0.35 px" style="stroke-width:0.35;stroke-miterlimit:4;stroke-dasharray:none;stroke-linecap:square;fill:#00aa00;fill-opacity:1.0;fill-rule: evenodd"/>
<path id="Body004_f0026"  d="M -4.999999999999974 30.0 L -4.999999999999974 30.0 L -4.999999999999974 20.0 L -4.999999999999974 20.0 L -4.999999999999974 30.0 Z " stroke="#191919" stroke-width="0.35 px" style="stroke-width:0.35;stroke-miterlimit:4;stroke-dasharray:none;stroke-linecap:square;fill:#00aa00;fill-opacity:1.0;fill-rule: evenodd"/>
<path id="Body004_f0027"  d="M -4.999999999999974 20.0 L -4.999999999999974 20.0 L 5.000000000000026 20.0 L 5.000000000000026 20.0 L -4.999999999999974 20.0 Z " stroke="#191919" stroke-width="0.35 px" style="stroke-width:0.35;stroke-miterlimit:4;stroke-dasharray:none;stroke-linecap:square;fill:#00aa00;fill-opacity:1.0;fill-rule: evenodd"/>
<path id="Body004_f0028"  d="M 5.000000000000026 20.0 L 5.000000000000026 20.0 L 5.000000000000026 30.0 L 5.000000000000026 30.0 L 5.000000000000026 20.0 Z " stroke="#191919" stroke-width="0.35 px" style="stroke-width:0.35;stroke-miterlimit:4;stroke-dasharray:none;stroke-linecap:square;fill:#00aa00;fill-opacity:1.0;fill-rule: evenodd"/>
<path id="Body004_f0029"  d="M 5.000000000000026 30.0 L 5.000000000000026 30.0 L -4.999999999999974 30.0 L -4.999999999999974 30.0 L 5.000000000000026 30.0 Z " stroke="#191919" stroke-width="0.35 px" style="stroke-width:0.35;stroke-miterlimit:4;stroke-dasharray:none;stroke-linecap:square;fill:#00aa00;fill-opacity:1.0;fill-rule: evenodd"/>
<circle cx="30.000000000000025" cy="6.5" r="3.3" stroke="#191919" stroke-width="0.35 px" style="stroke-width:0.35;stroke-miterlimit:4;stroke-dasharray:none;stroke-linecap:square;fill:#00aa00"/>
<circle cx="-29.999999999999975" cy="6.5" r="3.3" stroke="#191919" stroke-width="0.35 px" style="stroke-width:0.35;stroke-miterlimit:4;stroke-dasharray:none;stroke-linecap:square;fill:#00aa00"/>
<circle cx="-29.999999999999975" cy="43.5" r="3.3" stroke="#191919" stroke-width="0.35 px" style="stroke-width:0.35;stroke-miterlimit:4;stroke-dasharray:none;stroke-linecap:square;fill:#00aa00"/>
<circle cx="30.000000000000025" cy="43.5" r="3.3" stroke="#191919" stroke-width="0.35 px" style="stroke-width:0.35;stroke-miterlimit:4;stroke-dasharray:none;stroke-linecap:square;fill:#00aa00"/>
<circle cx="30.00000000000002" cy="25.0" r="1.6" stroke="#191919" stroke-width="0.35 px" style="stroke-width:0.35;stroke-miterlimit:4;stroke-dasharray:none;stroke-linecap:square;fill:#00aa00"/>
<circle cx="-29.999999999999975" cy="25.0" r="1.6" stroke="#191919" stroke-width="0.35 px" style="stroke-width:0.35;stroke-miterlimit:4;stroke-dasharray:none;stroke-linecap:square;fill:#00aa00"/>
<circle cx="30.00000000000002" cy="31.5" r="1.0" stroke="#191919" stroke-width="0.35 px" style="stroke-width:0.35;stroke-miterlimit:4;stroke-dasharray:none;stroke-linecap:square;fill:#00aa00"/>
<circle cx="-29.99999999999997" cy="18.5" r="1.0" stroke="#191919" stroke-width="0.35 px" style="stroke-width:0.35;stroke-miterlimit:4;stroke-dasharray:none;stroke-linecap:square;fill:#00aa00"/>
<title>b'Gasket 2 (blocking)'</title>
</g>
</svg>