<?xml version="1.0"?>
<!DOCTYPE svg PUBLIC "-//W3C//DTD SVG 1.1//EN" "http://www.w3.org/Graphics/SVG/1.1/DTD/svg11.dtd">
<svg width="75.47999999999999mm" height="51.480000000000004mm" viewBox="0 0 75.47999999999999 51.480000000000004" xmlns="http://www.w3.org/2000/svg" version="1.1">
<g id="Body002" transform="translate(37.740000,50.740000) scale(1,-1)">
<path id="Body002_f0000"  d="M -6.999999999999999 49.99999999999999 L -31.999999999999993 50.0 L -31.999999999999993 50.0 L -7.0 49.99999999999999 L -6.999999999999999 49.99999999999999 Z " stroke="#191919" stroke-width="0.35 px" style="stroke-width:0.35;stroke-miterlimit:4;stroke-dasharray:none;stroke-linecap:square;fill:#cccccc;fill-opacity:1.0;fill-rule: evenodd"/>
<circle cx="30.0" cy="6.499999999999999" r="3.3" stroke="#191919" stroke-width="0.35 px" style="stroke-width:0.35;stroke-miterlimit:4;stroke-dasharray:none;stroke-linecap:square;fill:#cccccc"/>
<path id="Body002_f0002"  d="M -6.999999999999999 49.99999999999999 A 2 2 0 0 0 -5 48L -5.0 47.99999999999999 A 2 2 0 0 1 -7 50L -6.999999999999999 49.99999999999999 Z " stroke="#191919" stroke-width="0.35 px" style="stroke-width:0.35;stroke-miterlimit:4;stroke-dasharray:none;stroke-linecap:square;fill:#cccccc;fill-opacity:1.0;fill-rule: evenodd"/>
<path id="Body002_f0003"  d="M -31.999999999999993 50.0 A 5 5 0 0 1 -37 45L -36.99999999999999 45.0 A 5 5 0 0 0 -32 50L -31.999999999999993 50.0 Z " stroke="#191919" stroke-width="0.35 px" style="stroke-width:0.35;stroke-miterlimit:4;stroke-dasharray:none;stroke-linecap:square;fill:#cccccc;fill-opacity:1.0;fill-rule: evenodd"/>
<circle cx="30.0" cy="6.499999999999999" r="3.3" stroke="#191919" stroke-width="0.35 px" style="stroke-width:0.35;stroke-miterlimit:4;stroke-dasharray:none;stroke-linecap:square;fill:#cccccc"/>
<path id="Body002_f0005"  d="M -5.0 46.99999999999999 L -5.0 47.99999999999999 L -5.0 47.99999999999999 L -5.0 46.99999999999999 L -5.0 46.99999999999999 Z " stroke="#191919" stroke-width="0.35 px" style="stroke-width:0.35;stroke-miterlimit:4;stroke-dasharray:none;stroke-linecap:square;fill:#cccccc;fill-opacity:1.0;fill-rule: evenodd"/>
<path id="Body002_f0006"  d="M -36.99999999999999 5.0 L -36.99999999999999 45.0 L -36.99999999999999 45.0 L -36.99999999999999 4.999999999999999 L -36.99999999999999 4.999999999999999 Z " stroke="#191919" stroke-width="0.35 px" style="stroke-width:0.35;stroke-miterlimit:4;stroke-dasharray:none;stroke-linecap:square;fill:#cccccc;fill-opacity:1.0;fill-rule: evenodd"/>
<path id="Body002_f0007"  d="M -5.0 46.99999999999999 A 2 2 0 0 1 -3 45L -3.0000000000000004 44.99999999999999 A 2 2 0 0 0 -5 47L -5.0 46.99999999999999 Z " stroke="#191919" stroke-width="0.35 px" style="stroke-width:0.35;stroke-miterlimit:4;stroke-dasharray:none;stroke-linecap:square;fill:#cccccc;fill-opacity:1.0;fill-rule: evenodd"/>
<path id="Body002_f0008"  d="M -36.99999999999999 4.999999999999999 A 5 5 0 0 1 -32 -8.88178e-16L -31.999999999999993 -8.881784197001252e-16 A 5 5 0 0 0 -37 5L -36.99999999999999 4.999999999999999 Z " stroke="#191919" stroke-width="0.35 px" style="stroke-width:0.35;stroke-miterlimit:4;stroke-dasharray:none;stroke-linecap:square;fill:#cccccc;fill-opacity:1.0;fill-rule: evenodd"/>
<path id="Body002_f0009"  d="M 3.0 44.99999999999999 L -3.0000000000000004 44.99999999999999 L -3.0000000000000004 44.99999999999999 L 3.0000000000000004 44.99999999999999 L 3.0000000000000004 44.99999999999999 Z " stroke="#191919" stroke-width="0.35 px" style="stroke-width:0.35;stroke-miterlimit:4;stroke-dasharray:none;stroke-linecap:square;fill:#cccccc;fill-opacity:1.0;fill-rule: evenodd"/>
<path id="Body002_f0010"  d="M -7.0 -4.440892098500626e-16 L -31.999999999999993 -8.881784197001252e-16 L -31.999999999999993 -8.881784197001252e-16 L -7.0 0.0 L -7.0 -4.440892098500626e-16 Z " stroke="#191919" stroke-width="0.35 px" style="stroke-width:0.35;stroke-miterlimit:4;stroke-dasharray:none;stroke-linecap:square;fill:#cccccc;fill-opacity:1.0;fill-rule: evenodd"/>
<path id="Body002_f0011"  d="M 3.0000000000000004 44.99999999999999 A 2 2 0 0 1 5 47L 5.0 46.99999999999999 A 2 2 0 0 0 3 45L 3.0000000000000004 44.99999999999999 Z " stroke="#191919" stroke-width="0.35 px" style="stroke-width:0.35;stroke-miterlimit:4;stroke-dasharray:none;stroke-linecap:square;fill:#cccccc;fill-opacity:1.0;fill-rule: evenodd"/>
<path id="Body002_f0012"  d="M -7.0 -4.440892098500626e-16 A 2 2 0 0 1 -5 2L -5.0 1.9999999999999993 A 2 2 0 0 0 -7 -4.44089e-16L -7.0 -4.440892098500626e-16 Z " stroke="#191919" stroke-width="0.35 px" style="stroke-width:0.35;stroke-miterlimit:4;stroke-dasharray:none;stroke-linecap:square;fill:#cccccc;fill-opacity:1.0;fill-rule: evenodd"/>
<path id="Body002_f0013"  d="M 5.0 47.99999999999999 L 5.0 46.99999999999999 L 5.0 46.99999999999999 L 5.0 47.99999999999999 L 5.0 47.99999999999999 Z " stroke="#191919" stroke-width="0.35 px" style="stroke-width:0.35;stroke-miterlimit:4;stroke-dasharray:none;stroke-linecap:square;fill:#cccccc;fill-opacity:1.0;fill-rule: evenodd"/>
<path id="Body002_f0014"  d="M -5.0 3.0000000000000004 L -5.0 1.9999999999999993 L -5.0 1.9999999999999993 L -5.0 3.0000000000000004 L -5.0 3.0000000000000004 Z " stroke="#191919" stroke-width="0.35 px" style="stroke-width:0.35;stroke-miterlimit:4;stroke-dasharray:none;stroke-linecap:square;fill:#cccccc;fill-opacity:1.0;fill-rule: evenodd"/>
<path id="Body002_f0015"  d="M 5.0 47.99999999999999 A 2 2 0 0 0 7 50L 6.999999999999999 49.99999999999999 A 2 2 0 0 1 5 48L 5.0 47.99999999999999 Z " stroke="#191919" stroke-width="0.35 px" style="stroke-width:0.35;stroke-miterlimit:4;stroke-dasharray:none;stroke-linecap:square;fill:#cccccc;fill-opacity:1.0;fill-rule: evenodd"/>
<path id="Body002_f0016"  d="M -5.0 3.0000000000000004 A 2 2 0 0 0 -3 5L -3.0000000000000004 5.0 A 2 2 0 0 1 -5 3L -5.0 3.0000000000000004 Z " stroke="#191919" stroke-width="0.35 px" style="stroke-width:0.35;stroke-miterlimit:4;stroke-dasharray:none;stroke-linecap:square;fill:#cccccc;fill-opacity:1.0;fill-rule: evenodd"/>
<path id="Body002_f0017"  d="M 32.0 50.0 L 6.999999999999999 49.99999999999999 L 6.999999999999999 49.99999999999999 L 32.0 50.0 L 32.0 50.0 Z " stroke="#191919" stroke-width="0.35 px" style="stroke-width:0.35;stroke-miterlimit:4;stroke-dasharray:none;stroke-linecap:square;fill:#cccccc;fill-opacity:1.0;fill-rule: evenodd"/>
<path id="Body002_f0018"  d="M 3.0 5.0 L -3.0000000000000004 5.0 L -3.0000000000000004 5.0 L 3.0000000000000004 5.0 L 3.0000000000000004 5.0 Z " stroke="#191919" stroke-width="0.35 px" style="stroke-width:0.35;stroke-miterlimit:4;stroke-dasharray:none;stroke-linecap:square;fill:#cccccc;fill-opacity:1.0;fill-rule: evenodd"/>
<path id="Body002_f0019"  d="M 37.0 45.0 A 5 5 0 0 1 32 50L 32.0 50.0 A 5 5 0 0 0 37 45L 37.0 45.0 Z " stroke="#191919" stroke-width="0.35 px" style="stroke-width:0.35;stroke-miterlimit:4;stroke-dasharray:none;stroke-linecap:square;fill:#cccccc;fill-opacity:1.0;fill-rule: evenodd"/>
<path id="Body002_f0020"  d="M 3.0000000000000004 5.0 A 2 2 0 0 0 5 3L 5.0 3.0000000000000004 A 2 2 0 0 1 3 5L 3.0000000000000004 5.0 Z " stroke="#191919" stroke-width="0.35 px" style="stroke-width:0.35;stroke-miterlimit:4;stroke-dasharray:none;stroke-linecap:square;fill:#cccccc;fill-opacity:1.0;fill-rule: evenodd"/>
<path id="Body002_f0021"  d="M 37.0 45.0 L 37.0 4.999999999999999 L 37.0 4.999999999999999 L 37.0 45.0 L 37.0 45.0 Z " stroke="#191919" stroke-width="0.35 px" style="stroke-width:0.35;stroke-miterlimit:4;stroke-dasharray:none;stroke-linecap:square;fill:#cccccc;fill-opacity:1.0;fill-rule: evenodd"/>
<path id="Body002_f0022"  d="M 5.0 1.9999999999999996 L 5.0 3.0000000000000004 L 5.0 3.0000000000000004 L 5.0 1.9999999999999996 L 5.0 1.9999999999999996 Z " stroke="#191919" stroke-width="0.35 px" style="stroke-width:0.35;stroke-miterlimit:4;stroke-dasharray:none;stroke-linecap:square;fill:#cccccc;fill-opacity:1.0;fill-rule: evenodd"/>
<path id="Body002_f0023"  d="M 32.0 -8.881784197001252e-16 A 5 5 0 0 1 37 5L 37.0 4.999999999999999 A 5 5 0 0 0 32 -8.88178e-16L 32.0 -8.881784197001252e-16 Z " stroke="#191919" stroke-width="0.35 px" style="stroke-width:0.35;stroke-miterlimit:4;stroke-dasharray:none;stroke-linecap:square;fill:#cccccc;fill-opacity:1.0;fill-rule: evenodd"/>
<path id="Body002_f0024"  d="M 5.0 1.9999999999999996 A 2 2 0 0 1 7 -4.44089e-16L 7.0 -4.440892098500626e-16 A 2 2 0 0 0 5 2L 5.0 1.9999999999999996 Z " stroke="#191919" stroke-width="0.35 px" style="stroke-width:0.35;stroke-miterlimit:4;stroke-dasharray:none;stroke-linecap:square;fill:#cccccc;fill-opacity:1.0;fill-rule: evenodd"/>
<path id="Body002_f0025"  d="M 32.0 0.0 L 7.0 0.0 L 7.0 -4.440892098500626e-16 L 32.0 -8.881784197001252e-16 L 32.0 -8.881784197001252e-16 Z " stroke="#191919" stroke-width="0.35 px" style="stroke-width:0.35;stroke-miterlimit:4;stroke-dasharray:none;stroke-linecap:square;fill:#cccccc;fill-opacity:1.0;fill-rule: evenodd"/>
<path id="Body002_f0026"  d="M -5.0 30.0 L -5.0 30.0 L -5.0 20.0 L -5.0 20.0 L -5.0 30.0 Z " stroke="#191919" stroke-width="0.35 px" style="stroke-width:0.35;stroke-miterlimit:4;stroke-dasharray:none;stroke-linecap:square;fill:#cccccc;fill-opacity:1.0;fill-rule: evenodd"/>
<path id="Body002_f0027"  d="M -5.0 20.0 L -5.0 20.0 L 5.0 20.0 L 5.0 20.0 L -5.0 20.0 Z " stroke="#191919" stroke-width="0.35 px" style="stroke-width:0.35;stroke-miterlimit:4;stroke-dasharray:none;stroke-linecap:square;fill:#cccccc;fill-opacity:1.0;fill-rule: evenodd"/>
<path id="Body002_f0028"  d="M 5.0 20.0 L 5.0 20.0 L 5.0 30.0 L 5.0 30.0 L 5.0 20.0 Z " stroke="#191919" stroke-width="0.35 px" style="stroke-width:0.35;stroke-miterlimit:4;stroke-dasharray:none;stroke-linecap:square;fill:#cccccc;fill-opacity:1.0;fill-rule: evenodd"/>
<path id="Body002_f0029"  d="M 5.0 30.0 L 5.0 30.0 L -5.0 30.0 L -5.0 30.0 L 5.0 30.0 Z " stroke="#191919" stroke-width="0.35 px" style="stroke-width:0.35;stroke-miterlimit:4;stroke-dasharray:none;stroke-linecap:square;fill:#cccccc;fill-opacity:1.0;fill-rule: evenodd"/>
<circle cx="30.0" cy="6.499999999999999" r="3.3" stroke="#191919" stroke-width="0.35 px" style="stroke-width:0.35;stroke-miterlimit:4;stroke-dasharray:none;stroke-linecap:square;fill:#cccccc"/>
<circle cx="-30.0" cy="6.499999999999999" r="3.3" stroke="#191919" stroke-width="0.35 px" style="stroke-width:0.35;stroke-miterlimit:4;stroke-dasharray:none;stroke-linecap:square;fill:#cccccc"/>
<circle cx="-30.0" cy="43.5" r="3.3" stroke="#191919" stroke-width="0.35 px" style="stroke-width:0.35;stroke-miterlimit:4;stroke-dasharray:none;stroke-linecap:square;fill:#cccccc"/>
<circle cx="30.0" cy="43.5" r="3.3" stroke="#191919" stroke-width="0.35 px" style="stroke-width:0.35;stroke-miterlimit:4;stroke-dasharray:none;stroke-linecap:square;fill:#cccccc"/>
<circle cx="30.0" cy="25.0" r="1.6" stroke="#191919" stroke-width="0.35 px" style="stroke-width:0.35;stroke-miterlimit:4;stroke-dasharray:none;stroke-linecap:square;fill:#cccccc"/>
<circle cx="-29.999999999999996" cy="25.0" r="1.6" stroke="#191919" stroke-width="0.35 px" style="stroke-width:0.35;stroke-miterlimit:4;stroke-dasharray:none;stroke-linecap:square;fill:#cccccc"/>
<circle cx="30.0" cy="18.5" r="1.0" stroke="#191919" stroke-width="0.35 px" style="stroke-width:0.35;stroke-miterlimit:4;stroke-dasharray:none;stroke-linecap:square;fill:#cccccc"/>
<circle cx="30.0" cy="31.5" r="1.0" stroke="#191919" stroke-width="0.35 px" style="stroke-width:0.35;stroke-miterlimit:4;stroke-dasharray:none;stroke-linecap:square;fill:#cccccc"/>
<circle cx="-30.0" cy="18.5" r="1.0" stroke="#191919" stroke-width="0.35 px" style="stroke-width:0.35;stroke-miterlimit:4;stroke-dasharray:none;stroke-linecap:square;fill:#cccccc"/>
<circle cx="-30.0" cy="31.5" r="1.0" stroke="#191919" stroke-width="0.35 px" style="stroke-width:0.35;stroke-miterlimit:4;stroke-dasharray:none;stroke-linecap:square;fill:#cccccc"/>
<title>b'Gasket 1 (pass-through)'</title>
</g>
</svg>